# xmcd CD database file
#
# Track frame offsets:
#	150
#	49748
#	85717
#	119871
#	150958
#
# Disc length: 2490 seconds
#
# Revision: 0
# Processed by: cddbd v1.5.2PL0 Copyright (c) Steve Scherf et al.
# Submitted via: CDex 1.81
#
DISCID=3509b805
DTITLE=Herbie Hancock - The Prisoner
DYEAR=1969
DGENRE=Jazz
TTITLE0=I Have A Dream
TTITLE1=The Prisoner
TTITLE2=Firewater
TTITLE3=He Who Lives In Fear
TTITLE4=Promise Of The Sun
EXTD=YEAR: 1969
EXTT0=
EXTT1=
EXTT2=
EXTT3=
EXTT4=
PLAYORDER=
